HIERARCHY
ROOT Hips
{
 OFFSET 0.000000 0.000000 0.000000
 CHANNELS 6 Xposition Yposition Zposition Yrotation Xrotation Zrotation
 JOINT Chest
 {
  OFFSET 0.000000 9.581000 -0.001100
  CHANNELS 3 Yrotation Xrotation Zrotation
  JOINT Chest2
  {
   OFFSET 0.000000 9.561100 0.002200
   CHANNELS 3 Yrotation Xrotation Zrotation
   JOINT Chest3
   {
    OFFSET 0.000000 9.521100 0.000000
    CHANNELS 3 Yrotation Xrotation Zrotation
    JOINT Chest4
    {
     OFFSET 0.000000 9.511400 0.000000
     CHANNELS 3 Yrotation Xrotation Zrotation
     JOINT Neck
     {
      OFFSET 0.000000 14.375100 0.000000
      CHANNELS 3 Yrotation Xrotation Zrotation
      JOINT Head
      {
       OFFSET 0.000000 8.901200 0.004600
       CHANNELS 3 Yrotation Xrotation Zrotation
       End Site
       {
        OFFSET 0.000000 16.962200 0.002400
       }
      }
     }
     JOINT RightCollar
     {
      OFFSET -2.920100 9.518800 0.000000
      CHANNELS 3 Yrotation Xrotation Zrotation
      JOINT RightShoulder
      {
       OFFSET -13.664500 0.000000 0.000000
       CHANNELS 3 Yrotation Xrotation Zrotation
       JOINT RightElbow
       {
        OFFSET 0.000000 -29.999200 0.000000
        CHANNELS 3 Yrotation Xrotation Zrotation
        JOINT RightWrist
        {
         OFFSET 0.000000 -24.253600 0.000000
         CHANNELS 3 Yrotation Xrotation Zrotation
         End Site
         {
          OFFSET 0.000000 -17.918900 0.000000
         }
        }
       }
      }
     }
     JOINT LeftCollar
     {
      OFFSET 2.920100 9.518800 0.000000
      CHANNELS 3 Yrotation Xrotation Zrotation
      JOINT LeftShoulder
      {
       OFFSET 13.664500 0.000000 0.000000
       CHANNELS 3 Yrotation Xrotation Zrotation
       JOINT LeftElbow
       {
        OFFSET 0.000000 -29.999200 0.000000
        CHANNELS 3 Yrotation Xrotation Zrotation
        JOINT LeftWrist
        {
         OFFSET 0.000000 -24.253600 0.000000
         CHANNELS 3 Yrotation Xrotation Zrotation
         End Site
         {
          OFFSET 0.000000 -17.918900 0.000000
         }
        }
       }
      }
     }
    }
   }
  }
 }
 JOINT RightHip
 {
  OFFSET -7.797300 0.005300 0.000500
  CHANNELS 3 Yrotation Xrotation Zrotation
  JOINT RightKnee
  {
   OFFSET 0.000000 -40.663400 -0.000500
   CHANNELS 3 Yrotation Xrotation Zrotation
   JOINT RightAnkle
   {
    OFFSET 0.000000 -39.523700 -0.000900
    CHANNELS 3 Yrotation Xrotation Zrotation
    JOINT RightToe
    {
     OFFSET 0.000000 -6.418000 14.485300
     CHANNELS 3 Yrotation Xrotation Zrotation
     End Site
     {
      OFFSET 0.000000 -1.465200 6.326400
     }
    }
   }
  }
 }
 JOINT LeftHip
 {
  OFFSET 7.797300 0.005300 0.000500
  CHANNELS 3 Yrotation Xrotation Zrotation
  JOINT LeftKnee
  {
   OFFSET 0.000000 -40.663400 -0.000500
   CHANNELS 3 Yrotation Xrotation Zrotation
   JOINT LeftAnkle
   {
    OFFSET 0.000000 -39.523700 -0.000900
    CHANNELS 3 Yrotation Xrotation Zrotation
    JOINT LeftToe
    {
     OFFSET 0.000000 -6.418000 14.485300
     CHANNELS 3 Yrotation Xrotation Zrotation
     End Site
     {
      OFFSET 0.000000 -1.465200 6.326400
     }
    }
   }
  }
 }
}
MOTION
Frames: 13
Frame Time: 0.008333
0.000000 86.422400 0.000000 0.000000 -5.767877 0.000000 0.000000 11.653817 0.000000 0.000000 -5.885947 0.000000 0.000000 -0.000000 0.000000 0.000000 -0.000000 0.000000 0.000000 12.528835 0.000000 0.000000 0.711642 0.000000 0.000000 -0.000000 0.000000 0.000000 0.000000 -90.000000 0.000000 -2.309062 0.000000 0.000000 2.309062 0.000000 0.000000 -0.000000 0.000000 0.000000 -0.000000 90.000000 0.000000 -2.309062 0.000000 0.000000 2.309062 0.000000 0.000000 8.520406 0.000000 0.000000 1.905762 0.000000 -0.000000 -4.658285 0.000000 0.000000 -0.000000 0.000000 0.000000 8.520406 0.000000 0.000000 1.905762 0.000000 -0.000000 -4.658285 0.000000 0.000000 -0.000000 0.000000
-23.375067 126.587369 56.454714 -173.030678 -32.069575 -1.521851 -1.852262 15.506025 -1.424945 -0.158614 1.482058 -0.113169 -0.268018 2.488006 -0.192469 -1.620551 13.792846 -1.236834 -0.146515 24.267849 0.506577 -0.274014 0.477022 0.581739 -18.037576 0.123815 -7.331755 -43.398156 0.879110 -12.472894 -117.101771 -42.792631 83.600688 -15.545447 -15.588537 -47.094888 6.438398 -3.683311 10.062667 37.853147 -2.268356 7.301472 95.912516 -40.132023 -76.374046 15.697431 -34.183454 40.962149 -5.700804 -54.324468 -2.142380 -35.264911 68.276081 -32.349792 31.346746 38.882929 19.326874 0.006011 0.004011 0.002664 -12.238884 -44.504523 -4.665917 16.295929 69.894867 5.448650 -0.765114 9.099430 5.422169 -0.003169 0.000251 -0.001404
-23.374631 126.586227 56.460114 -173.039055 -32.079462 -1.516514 -1.850118 15.362357 -1.464281 -0.156488 1.457056 -0.116064 -0.264603 2.447686 -0.197369 -1.617381 13.689326 -1.272625 -0.063973 24.757364 0.711326 -0.231517 1.078021 0.786108 -17.997916 0.218689 -7.273832 -43.294183 0.831613 -12.381059 -116.743324 -42.823392 82.899607 -15.497929 -15.717593 -47.303426 6.423573 -3.583039 10.053163 37.831975 -2.339998 7.247332 95.562479 -39.753830 -75.770351 15.574535 -34.181095 42.000388 -5.771045 -54.320163 -2.088225 -35.243695 68.274816 -32.363990 31.296880 38.886605 19.331903 0.001544 0.004035 0.000684 -12.194168 -44.497611 -4.715361 16.359189 69.893944 5.563720 -0.775348 9.098554 5.398216 -0.003732 0.001368 -0.001654
-23.373704 126.584793 56.466953 -173.041002 -32.096147 -1.518276 -1.844626 15.210993 -1.499319 -0.154086 1.431993 -0.118844 -0.260752 2.407262 -0.202052 -1.611494 13.584660 -1.307619 -0.000447 25.333864 0.915469 -0.209215 1.792048 0.995553 -17.989796 0.343728 -7.224133 -43.172220 0.790870 -12.250829 -116.391974 -42.781376 82.215465 -15.456141 -15.803852 -47.554777 6.419221 -3.458871 10.060336 37.809783 -2.404205 7.165886 95.177920 -39.370791 -75.148639 15.495742 -34.183698 42.998619 -5.842038 -54.307961 -2.039985 -35.182078 68.280380 -32.339743 31.330566 38.884817 19.359462 0.006387 0.011548 0.002830 -12.137754 -44.480043 -4.771695 16.496448 69.885741 5.760453 -0.816091 9.098856 5.373010 -0.002366 0.003130 -0.001048
-23.373342 126.588293 56.466977 -173.046293 -32.179509 -1.522422 -1.824711 15.125052 -1.531187 -0.151415 1.408667 -0.121348 -0.256516 2.369544 -0.206358 -1.602157 13.486402 -1.340301 0.016441 25.938333 1.104708 -0.233982 2.547795 1.200627 -18.018183 0.495822 -7.183460 -43.034550 0.751235 -12.074542 -116.046155 -42.679324 81.554050 -15.413299 -15.853320 -47.832207 6.422826 -3.308472 10.096577 37.767721 -2.462492 7.044721 94.774672 -39.014257 -74.497694 15.442354 -34.170445 43.928078 -5.878512 -54.228862 -2.020394 -35.115755 68.280177 -32.297487 31.391085 38.906397 19.422672 0.013605 0.008689 0.006029 -12.070699 -44.386086 -4.830197 16.574861 69.877111 5.880824 -0.836449 9.093765 5.366665 -0.003906 0.003851 -0.001731
-23.373385 126.588349 56.473436 -173.036888 -32.235467 -1.530562 -1.810421 15.021358 -1.562282 -0.148776 1.388499 -0.123506 -0.252295 2.336831 -0.210087 -1.590784 13.400588 -1.368862 0.005876 26.487362 1.266407 -0.282162 3.240426 1.382559 -18.063708 0.689687 -7.162894 -42.914371 0.699030 -11.843835 -115.686678 -42.523133 80.918097 -15.364588 -15.877472 -48.121654 6.429803 -3.124768 10.166172 37.711496 -2.514837 6.882338 94.357878 -38.689311 -73.825375 15.406515 -34.137017 44.767597 -5.895269 -54.175271 -2.030566 -35.061135 68.282481 -32.249086 31.429920 38.914850 19.448675 0.013411 0.012023 0.005943 -12.011053 -44.314602 -4.875759 16.529289 69.862655 5.876133 -0.838374 9.092691 5.366755 -0.003964 0.008932 -0.001756
-23.373000 126.587768 56.481802 -173.022068 -32.293918 -1.546497 -1.796781 14.938095 -1.579792 -0.146584 1.372467 -0.125190 -0.248657 2.310781 -0.212827 -1.580118 13.331847 -1.390608 -0.002744 26.894840 1.379531 -0.307257 3.795121 1.530331 -18.138863 0.888414 -7.134391 -42.796331 0.630342 -11.614062 -115.305517 -42.326990 80.311066 -15.311664 -15.889968 -48.398495 6.439308 -2.918178 10.255093 37.651537 -2.547451 6.701750 93.928885 -38.382134 -73.153402 15.399593 -34.094642 45.510472 -5.887480 -54.115287 -2.062968 -35.007386 68.278275 -32.179550 31.478858 38.930782 19.477929 0.014647 0.016163 0.006491 -12.021205 -44.250973 -4.874168 16.613053 69.850687 5.960028 -0.868294 9.096834 5.358142 -0.002312 0.010235 -0.001025
-23.374834 126.586606 56.492278 -173.005499 -32.353592 -1.552737 -1.789648 14.880279 -1.596217 -0.145162 1.361412 -0.125966 -0.246262 2.292806 -0.214091 -1.572985 13.284312 -1.402076 -0.007409 27.134097 1.430052 -0.281485 4.169878 1.641383 -18.228486 1.076236 -7.097273 -42.687294 0.558982 -11.401479 -114.924994 -42.105325 79.747703 -15.260920 -15.895218 -48.638731 6.437856 -2.711583 10.339048 37.599602 -2.542079 6.533132 93.482410 -38.079911 -72.495678 15.429866 -34.062436 46.148566 -5.741565 -54.060901 -2.222609 -35.021160 68.287400 -32.098894 31.394474 38.972639 19.509297 -0.000718 0.016648 -0.000318 -12.026437 -44.190597 -4.889281 16.678118 69.834683 6.027237 -0.880921 9.109396 5.346148 0.000012 0.010236 0.000005
-23.375619 126.585890 56.503234 -172.982432 -32.421484 -1.572574 -1.790759 14.858685 -1.590509 -0.144744 1.356535 -0.125453 -0.249756 2.324979 -0.216416 -1.566355 13.223485 -1.395252 0.006758 27.323025 1.475768 -0.258253 4.277538 1.668043 -18.301929 1.256554 -7.080307 -42.605988 0.512907 -11.178074 -114.582193 -41.865830 79.254663 -15.217043 -15.893404 -48.832561 6.412863 -2.517342 10.398165 37.556692 -2.489885 6.385884 93.022606 -37.790019 -71.859435 15.482193 -34.053827 46.669365 -5.657249 -53.999911 -2.317178 -35.054344 68.295848 -32.070698 31.383761 38.979822 19.510654 0.004183 0.024622 0.001854 -12.049689 -44.122289 -4.889098 16.689074 69.818758 6.042984 -0.881102 9.128045 5.327147 0.001495 0.009679 0.000662
-23.375834 126.585496 56.515202 -172.966908 -32.492979 -1.595224 -1.792099 14.877682 -1.572993 -0.144912 1.356305 -0.124365 -0.246973 2.326097 -0.221704 -1.569839 13.229372 -1.365353 0.037675 27.361047 1.484967 -0.284300 4.321078 1.663044 -18.381296 1.390595 -7.069634 -42.505210 0.519672 -10.962507 -114.309216 -41.626594 78.852128 -15.182917 -15.890594 -48.983665 6.364751 -2.343858 10.430860 37.503144 -2.386633 6.252900 92.570670 -37.546326 -71.243227 15.524321 -34.068526 47.079976 -5.566572 -53.940351 -2.405841 -35.046044 68.287285 -32.003228 31.404451 39.036742 19.561194 0.007844 0.021664 0.003476 -12.095322 -44.052794 -4.859902 16.671515 69.805857 6.011892 -0.876281 9.152583 5.308819 0.002879 0.009412 0.001276
-23.375930 126.585145 56.528950 -172.966999 -32.562000 -1.612829 -1.784947 14.932005 -1.554710 -0.147537 1.344887 -0.110530 -0.244231 2.297271 -0.224110 -1.577179 13.311777 -1.333693 0.054790 27.305995 1.460948 -0.258584 4.277221 1.609840 -18.473810 1.480576 -7.054998 -42.351689 0.577843 -10.742299 -114.125762 -41.428955 78.531409 -15.158807 -15.894190 -49.096396 6.295365 -2.200874 10.448873 37.413465 -2.237386 6.129553 92.139338 -37.396318 -70.614773 15.537392 -34.098105 47.392174 -5.468165 -53.885904 -2.484226 -35.001386 68.228069 -31.923168 31.582839 39.140342 19.700076 0.005064 -0.001299 0.002244 -12.133432 -43.989900 -4.826343 16.634018 69.795515 5.959721 -0.863481 9.179642 5.291124 0.001797 0.006644 0.000796
-23.377406 126.586702 56.541878 -172.965371 -32.646714 -1.627329 -1.779202 14.981782 -1.528706 -0.157247 1.377227 -0.099131 -0.250744 2.326465 -0.201974 -1.581586 13.376369 -1.324210 0.038966 27.205480 1.405992 -0.277074 4.153672 1.532273 -18.579253 1.540503 -7.029813 -42.128109 0.662312 -10.504911 -114.023992 -41.325432 78.254075 -15.145429 -15.911756 -49.165841 6.208029 -2.089487 10.459998 37.275253 -2.056503 6.013606 91.723749 -37.378778 -69.930443 15.522125 -34.126378 47.607570 -5.368112 -53.818654 -2.562159 -35.038934 68.203960 -31.913124 31.557934 39.198913 19.743350 -0.001843 -0.010834 -0.000816 -12.148859 -43.910650 -4.811185 16.569357 69.780944 5.884371 -0.851483 9.211926 5.276855 0.000319 0.003035 0.000141
-23.377571 126.589854 56.554377 -172.968597 -32.741731 -1.650459 -1.795436 15.080548 -1.466589 -0.149906 1.401744 -0.115557 -0.253862 2.358315 -0.196488 -1.585712 13.460974 -1.285534 0.017262 27.078205 1.337545 -0.285403 3.990087 1.461321 -18.685211 1.577502 -7.000354 -41.842961 0.751094 -10.246825 -113.972813 -41.361819 77.979249 -15.138169 -15.945962 -49.183431 6.108169 -1.998398 10.462525 37.099663 -1.858183 5.895430 91.301813 -37.512046 -69.162436 15.482069 -34.145475 47.732836 -5.281748 -53.740892 -2.618844 -35.072599 68.183264 -31.901566 31.636791 39.243217 19.789320 0.009378 -0.011308 0.004154 -12.126303 -43.820047 -4.808056 16.501266 69.771833 5.823629 -0.843583 9.239366 5.282051 0.000898 -0.002039 0.000398
